<svg width="242" height="34" viewBox="0 0 242 34" fill="none" xmlns="http://www.w3.org/2000/svg">
<path d="M15.608 26.728C15.6507 26.856 15.6933 26.9733 15.736 27.08C15.7787 27.1867 15.8107 27.304 15.832 27.432C15.8747 27.56 15.896 27.6773 15.896 27.784C15.896 27.9333 15.8427 28.0507 15.736 28.136C15.6293 28.2427 15.5013 28.328 15.352 28.392C15.224 28.456 15.096 28.4987 14.968 28.52C14.84 28.5413 14.7653 28.552 14.744 28.552C14.616 28.552 14.3813 28.1573 14.04 27.368C13.6987 26.6 13.3253 25.512 12.92 24.104C12.536 22.696 12.1413 21.0213 11.736 19.08C11.3307 17.1387 11 15.0053 10.744 12.68C10.7013 13.1707 10.616 13.7467 10.488 14.408C10.3813 15.048 10.2107 15.656 9.976 16.232C9.74133 16.808 9.432 17.2987 9.048 17.704C8.68533 18.088 8.216 18.28 7.64 18.28C7.23467 18.28 6.776 18.0667 6.264 17.64C5.752 17.2133 5.25067 16.712 4.76 16.136C4.29067 15.5387 3.85333 14.9413 3.448 14.344C3.064 13.7253 2.776 13.224 2.584 12.84C2.66933 13.7787 2.808 14.9093 3 16.232C3.21333 17.5547 3.53333 18.952 3.96 20.424C4.00267 20.5733 4.04533 20.6907 4.088 20.776C4.152 20.84 4.20533 20.9147 4.248 21C4.312 21.0853 4.35467 21.1813 4.376 21.288C4.41867 21.3733 4.44 21.512 4.44 21.704C4.44 21.9813 4.33333 22.184 4.12 22.312C3.90667 22.44 3.704 22.504 3.512 22.504C3.40533 22.504 3.26667 22.344 3.096 22.024C2.92533 21.6827 2.744 21.2453 2.552 20.712C2.36 20.1787 2.168 19.592 1.976 18.952C1.784 18.2907 1.60267 17.64 1.432 17C1.28267 16.36 1.15467 15.7627 1.048 15.208C0.941333 14.632 0.888 14.1733 0.888 13.832C0.888 13.2773 0.909333 12.8933 0.952 12.68C1.016 12.4667 1.10133 12.3067 1.208 12.2V10.248C1.208 9.94933 1.28267 9.72533 1.432 9.576C1.60267 9.40533 1.816 9.32 2.072 9.32C2.28533 9.32 2.53067 9.50133 2.808 9.864C3.08533 10.2267 3.384 10.6853 3.704 11.24C4.04533 11.7947 4.39733 12.392 4.76 13.032C5.12267 13.672 5.47467 14.2693 5.816 14.824C6.17867 15.3787 6.52 15.8373 6.84 16.2C7.18133 16.5627 7.50133 16.744 7.8 16.744C8.07733 16.744 8.344 16.488 8.6 15.976C8.856 15.4427 9.09067 14.7493 9.304 13.896C9.53867 13.0427 9.74133 12.072 9.912 10.984C10.0827 9.896 10.2213 8.78667 10.328 7.656C10.328 7.528 10.3173 7.38933 10.296 7.24C10.2747 7.06933 10.264 6.888 10.264 6.696C10.264 6.44 10.3173 6.16267 10.424 5.864C10.552 5.56533 10.7867 5.416 11.128 5.416C11.32 5.416 11.4693 5.46933 11.576 5.576C11.704 5.68266 11.7893 5.82133 11.832 5.992C11.8747 6.14133 11.896 6.30133 11.896 6.472C11.9173 6.62133 11.928 6.74933 11.928 6.856C11.928 7.02667 11.9067 7.31467 11.864 7.72C11.8427 8.104 11.832 8.70133 11.832 9.512C11.832 10.216 11.8853 11.0373 11.992 11.976C12.0987 12.8933 12.2373 13.8747 12.408 14.92C12.6 15.944 12.8133 17.0107 13.048 18.12C13.304 19.208 13.5707 20.2747 13.848 21.32C14.1467 22.3653 14.4347 23.3573 14.712 24.296C15.0107 25.2133 15.3093 26.024 15.608 26.728ZM18.5743 10.28C18.5743 10.3227 18.4996 10.408 18.3503 10.536C18.2009 10.664 18.0196 10.8027 17.8063 10.952C17.6143 11.08 17.4116 11.1973 17.1983 11.304C16.9849 11.4107 16.8143 11.464 16.6863 11.464C16.6009 11.464 16.4836 11.464 16.3343 11.464C16.2063 11.4427 16.0676 11.4 15.9183 11.336C15.7903 11.272 15.6729 11.1867 15.5663 11.08C15.4596 10.952 15.4062 10.792 15.4062 10.6C15.4062 10.3013 15.5129 10.024 15.7263 9.768C15.9396 9.49067 16.2169 9.352 16.5583 9.352C16.6223 9.352 16.7609 9.384 16.9743 9.448C17.2089 9.49067 17.4436 9.55467 17.6783 9.64C17.9129 9.72533 18.1156 9.82133 18.2863 9.928C18.4783 10.0347 18.5743 10.152 18.5743 10.28ZM19.6302 22.248C19.6302 22.3973 19.5129 22.5253 19.2783 22.632C19.0649 22.7387 18.9049 22.792 18.7983 22.792C18.5849 22.792 18.3929 22.6533 18.2223 22.376C18.0516 22.0987 17.9023 21.7787 17.7743 21.416C17.6463 21.0533 17.5396 20.712 17.4543 20.392C17.3689 20.0507 17.3049 19.816 17.2623 19.688C17.1983 19.4747 17.1129 19.2187 17.0063 18.92C16.8996 18.6213 16.7929 18.3333 16.6863 18.056C16.6009 17.7787 16.5263 17.5333 16.4622 17.32C16.3983 17.1067 16.3663 16.9893 16.3663 16.968C16.3663 16.6693 16.4196 16.392 16.5263 16.136C16.6543 15.88 16.8036 15.752 16.9743 15.752C17.1663 15.752 17.3689 15.9013 17.5823 16.2C17.7956 16.4987 17.9983 16.8827 18.1903 17.352C18.4036 17.8 18.5956 18.3013 18.7663 18.856C18.9369 19.3893 19.0863 19.9013 19.2143 20.392C19.3423 20.8613 19.4383 21.2773 19.5023 21.64C19.5876 21.9813 19.6302 22.184 19.6302 22.248ZM33.015 21.576C33.015 21.7467 32.9937 21.8747 32.951 21.96C32.9083 22.024 32.8017 22.0773 32.631 22.12C32.439 22.184 32.1937 22.2587 31.895 22.344C31.6177 22.408 31.3083 22.4827 30.967 22.568C30.6257 22.632 30.2737 22.696 29.911 22.76C29.5697 22.8027 29.2497 22.824 28.951 22.824C28.5883 22.824 28.183 22.8027 27.735 22.76C27.3083 22.7173 26.8923 22.6533 26.487 22.568C26.0817 22.4613 25.7083 22.3547 25.367 22.248C25.047 22.12 24.8123 21.9707 24.663 21.8C24.7697 22.248 24.8657 22.696 24.951 23.144C25.0363 23.592 25.1003 24.04 25.143 24.488C25.143 24.5947 25.111 24.6907 25.047 24.776C25.0043 24.84 24.8657 24.872 24.631 24.872C24.5243 24.872 24.4177 24.8507 24.311 24.808C24.2257 24.744 24.151 24.6267 24.087 24.456C23.895 24.0293 23.735 23.6347 23.607 23.272C23.479 22.888 23.3617 22.504 23.255 22.12C23.1697 21.736 23.0737 21.3307 22.967 20.904C22.8603 20.4773 22.7323 20.008 22.583 19.496C22.3483 18.664 22.103 17.7787 21.847 16.84C21.591 15.88 21.3563 14.9733 21.143 14.12C20.9297 13.2453 20.759 12.4773 20.631 11.816C20.503 11.1333 20.439 10.6533 20.439 10.376C20.439 10.248 20.439 10.0773 20.439 9.864C20.4603 9.65067 20.4923 9.448 20.535 9.256C20.599 9.04267 20.6737 8.872 20.759 8.744C20.8657 8.59467 21.0043 8.52 21.175 8.52C21.2817 8.52 21.3883 8.69067 21.495 9.032C21.623 9.352 21.7297 9.71467 21.815 10.12C21.9217 10.504 22.007 10.8773 22.071 11.24C22.1563 11.5813 22.199 11.7627 22.199 11.784C22.2843 12.2533 22.3803 12.776 22.487 13.352C22.615 13.9067 22.743 14.472 22.871 15.048C22.999 15.624 23.1377 16.1787 23.287 16.712C23.4363 17.224 23.5963 17.6613 23.767 18.024C23.7883 17.8107 23.863 17.5013 23.991 17.096C24.119 16.6907 24.2897 16.2533 24.503 15.784C24.7163 15.3147 24.951 14.8347 25.207 14.344C25.4843 13.832 25.7617 13.3733 26.039 12.968C26.3377 12.5627 26.6257 12.232 26.903 11.976C27.2017 11.72 27.479 11.592 27.735 11.592C28.1403 11.592 28.4177 11.6453 28.567 11.752C28.7377 11.8587 28.823 11.9867 28.823 12.136C28.823 12.264 28.6417 12.52 28.279 12.904C27.9163 13.2667 27.511 13.7573 27.063 14.376C26.615 14.9733 26.2097 15.688 25.847 16.52C25.4843 17.3307 25.303 18.2373 25.303 19.24C25.303 19.6027 25.399 19.9227 25.591 20.2C25.8043 20.456 26.071 20.6693 26.391 20.84C26.7323 21.0107 27.1057 21.1493 27.511 21.256C27.9377 21.3413 28.3537 21.384 28.759 21.384C29.1217 21.384 29.5163 21.3733 29.943 21.352C30.3697 21.3307 30.7643 21.3093 31.127 21.288C31.511 21.2453 31.831 21.2133 32.087 21.192C32.3643 21.1707 32.535 21.16 32.599 21.16C32.7057 21.16 32.8017 21.192 32.887 21.256C32.9723 21.32 33.015 21.4267 33.015 21.576ZM43.301 21.64C43.3223 21.6827 43.333 21.7467 43.333 21.832C43.333 21.96 43.237 22.152 43.045 22.408C42.981 22.4933 42.8423 22.632 42.629 22.824C42.4157 23.016 42.1277 23.208 41.765 23.4C41.4023 23.592 40.9543 23.7627 40.421 23.912C39.909 24.0613 39.301 24.136 38.597 24.136C38.1063 24.136 37.6263 24.0293 37.157 23.816C36.6877 23.5813 36.2717 23.2507 35.909 22.824C35.5463 22.376 35.2477 21.832 35.013 21.192C34.7783 20.5307 34.661 19.7627 34.661 18.888C34.661 18.056 34.7677 17.2773 34.981 16.552C35.1943 15.8267 35.461 15.1867 35.781 14.632C36.1223 14.0773 36.4957 13.64 36.901 13.32C37.3063 13 37.701 12.84 38.085 12.84C38.4263 12.84 38.7677 12.9147 39.109 13.064C39.4717 13.192 39.7917 13.3627 40.069 13.576C40.3677 13.7893 40.6023 14.0347 40.773 14.312C40.9437 14.568 41.029 14.8347 41.029 15.112C41.029 15.432 40.8797 15.7627 40.581 16.104C40.3037 16.4453 39.9623 16.7653 39.557 17.064C39.1517 17.3413 38.7463 17.576 38.341 17.768C37.9357 17.9387 37.6157 18.024 37.381 18.024C37.253 18.024 37.1357 17.9707 37.029 17.864C36.9437 17.736 36.901 17.5867 36.901 17.416C36.901 17.1173 37.029 16.8827 37.285 16.712C37.5623 16.5413 37.861 16.392 38.181 16.264C38.501 16.1147 38.789 15.944 39.045 15.752C39.3223 15.56 39.461 15.2933 39.461 14.952C39.461 14.9093 39.4077 14.8027 39.301 14.632C39.1943 14.4613 38.9063 14.376 38.437 14.376C38.2237 14.376 37.9783 14.504 37.701 14.76C37.4237 14.9947 37.157 15.3253 36.901 15.752C36.645 16.1573 36.4317 16.648 36.261 17.224C36.0903 17.7787 36.005 18.3867 36.005 19.048C36.005 19.6027 36.101 20.104 36.293 20.552C36.5063 21 36.773 21.384 37.093 21.704C37.413 22.0027 37.7863 22.2373 38.213 22.408C38.6397 22.5787 39.077 22.664 39.525 22.664C39.845 22.664 40.1863 22.6 40.549 22.472C40.933 22.3227 41.285 22.1733 41.605 22.024C41.9463 21.8533 42.2343 21.704 42.469 21.576C42.725 21.4267 42.885 21.352 42.949 21.352C43.013 21.352 43.077 21.384 43.141 21.448C43.2263 21.512 43.2797 21.576 43.301 21.64ZM69.2753 2.056C69.2966 2.09867 69.3073 2.17333 69.3073 2.28C69.3073 2.38667 69.3073 2.504 69.3073 2.632C69.3073 2.78133 69.2539 2.856 69.1473 2.856C69.1046 2.856 69.0513 2.84533 68.9873 2.824C68.9233 2.80267 68.8699 2.78133 68.8273 2.76C68.4433 2.58933 67.9739 2.376 67.4193 2.12C66.8859 1.84267 66.2779 1.704 65.5953 1.704C64.8273 1.704 64.2086 1.992 63.7393 2.568C63.2699 3.144 62.9073 3.816 62.6513 4.584C62.4166 5.33067 62.2566 6.06667 62.1713 6.792C62.1073 7.51733 62.0753 8.04 62.0753 8.36C62.0753 8.59467 62.1073 8.968 62.1713 9.48C62.2566 9.97067 62.3633 10.4827 62.4913 11.016C62.6193 11.5493 62.7686 12.04 62.9393 12.488C63.1099 12.9147 63.2806 13.1813 63.4513 13.288C63.5793 13.288 63.8033 13.2773 64.1233 13.256C64.4646 13.2347 64.7419 13.224 64.9553 13.224C65.3179 13.224 65.6593 13.256 65.9792 13.32C66.2993 13.384 66.6299 13.416 66.9713 13.416C67.0566 13.416 67.1846 13.416 67.3553 13.416C67.5259 13.416 67.6966 13.4267 67.8673 13.448C68.0593 13.4693 68.2193 13.512 68.3473 13.576C68.4753 13.6187 68.5393 13.6827 68.5393 13.768C68.5393 13.8747 68.4646 13.9707 68.3153 14.056C68.1659 14.1413 67.9953 14.216 67.8033 14.28C67.6113 14.3227 67.4193 14.3547 67.2273 14.376C67.0353 14.3973 66.8859 14.408 66.7793 14.408C66.6726 14.408 66.5339 14.408 66.3633 14.408C66.1926 14.3867 66.0006 14.3653 65.7873 14.344C65.5953 14.3227 65.4033 14.312 65.2113 14.312C65.0406 14.2907 64.8913 14.28 64.7633 14.28C64.4219 14.28 64.2086 14.3227 64.1233 14.408C64.0593 14.472 64.0273 14.6107 64.0273 14.824C64.0273 15.144 64.1659 15.5813 64.4433 16.136C64.7419 16.6693 65.0619 17.2453 65.4033 17.864C65.7446 18.4827 66.0539 19.1227 66.3313 19.784C66.6299 20.4453 66.7793 21.0533 66.7793 21.608C66.7793 21.7147 66.7473 21.9173 66.6833 22.216C66.6406 22.4933 66.5659 22.7813 66.4593 23.08C66.3739 23.3787 66.2459 23.6453 66.0753 23.88C65.9046 24.1147 65.7126 24.232 65.4993 24.232C65.3286 24.232 65.1686 24.1893 65.0193 24.104C64.8913 23.9973 64.8273 23.8267 64.8273 23.592C64.8273 23.2507 64.9126 22.9307 65.0833 22.632C65.2753 22.3333 65.3713 22.0133 65.3713 21.672C65.3713 21.5013 65.2859 21.2133 65.1153 20.808C64.9659 20.4027 64.7739 19.9547 64.5393 19.464C64.3046 18.952 64.0486 18.4187 63.7713 17.864C63.4939 17.3093 63.2273 16.808 62.9713 16.36C62.7366 15.8907 62.5339 15.5067 62.3633 15.208C62.1926 14.9093 62.0966 14.7493 62.0753 14.728C61.6486 14.8773 61.2113 15.0267 60.7633 15.176C60.3153 15.3253 59.9099 15.5493 59.5473 15.848C59.3979 15.9973 59.2593 16.072 59.1313 16.072C58.9179 16.072 58.7153 15.9867 58.5233 15.816C58.3526 15.6453 58.2673 15.4533 58.2673 15.24C58.2673 15.0053 58.3313 14.824 58.4593 14.696C58.6086 14.5467 58.7473 14.44 58.8753 14.376C59.0673 14.2693 59.3659 14.152 59.7713 14.024C60.1766 13.896 60.5819 13.7893 60.9873 13.704C61.1366 13.6613 61.2753 13.6293 61.4033 13.608C61.5313 13.5653 61.5953 13.4907 61.5953 13.384C61.5313 13.1707 61.4353 12.8933 61.3073 12.552C61.2006 12.1893 61.0833 11.7627 60.9553 11.272C60.8486 10.7813 60.7526 10.2373 60.6673 9.64C60.5819 9.02133 60.5393 8.36 60.5393 7.656C60.5393 6.888 60.6246 6.07733 60.7953 5.224C60.9873 4.37067 61.2753 3.592 61.6593 2.888C62.0646 2.16267 62.5659 1.576 63.1633 1.128C63.7606 0.658666 64.4753 0.424 65.3073 0.424C65.6913 0.424 66.1179 0.466666 66.5873 0.551998C67.0566 0.615999 67.4833 0.722666 67.8673 0.872C68.2726 0.999999 68.6033 1.17067 68.8593 1.384C69.1366 1.576 69.2753 1.8 69.2753 2.056ZM78.8633 15.24C78.8633 15.3893 78.7993 15.5173 78.6713 15.624C78.5433 15.7093 78.3939 15.784 78.2233 15.848C78.0526 15.912 77.8819 15.9653 77.7113 16.008C77.5406 16.0293 77.4019 16.04 77.2953 16.04C76.9753 16.04 76.7619 16.0187 76.6553 15.976C76.5486 15.9333 76.4633 15.912 76.3993 15.912C75.8659 15.912 75.4393 15.9547 75.1193 16.04C74.7993 16.1253 74.5433 16.264 74.3513 16.456C74.1806 16.648 74.0633 16.8933 73.9993 17.192C73.9566 17.4693 73.9353 17.8107 73.9353 18.216C73.9353 18.8987 73.9566 19.4427 73.9993 19.848C74.0633 20.2533 74.1166 20.584 74.1593 20.84C74.2233 21.096 74.2766 21.2987 74.3193 21.448C74.3833 21.576 74.4153 21.704 74.4153 21.832C74.4153 22.0027 74.3193 22.184 74.1273 22.376C73.9566 22.568 73.7966 22.664 73.6473 22.664C73.3913 22.664 73.1566 22.44 72.9433 21.992C72.7513 21.5227 72.5806 20.9787 72.4313 20.36C72.3033 19.72 72.1966 19.0907 72.1113 18.472C72.0259 17.8533 71.9833 17.384 71.9833 17.064C71.9833 16.7013 72.0153 16.36 72.0793 16.04C72.1433 15.6987 72.2286 15.4107 72.3353 15.176C72.4419 14.92 72.5593 14.7173 72.6873 14.568C72.8153 14.4187 72.9433 14.344 73.0713 14.344C73.1779 14.344 73.2633 14.3867 73.3273 14.472C73.3913 14.536 73.4446 14.6213 73.4873 14.728C73.5299 14.8133 73.5726 14.8987 73.6153 14.984C73.6793 15.048 73.7539 15.08 73.8393 15.08C74.0313 15.08 74.3406 14.984 74.7673 14.792C75.1939 14.6 75.7166 14.504 76.3353 14.504C76.9113 14.504 77.3379 14.5253 77.6153 14.568C77.9139 14.5893 78.2019 14.6533 78.4792 14.76C78.5433 14.7813 78.6179 14.8347 78.7033 14.92C78.8099 14.984 78.8633 15.0907 78.8633 15.24ZM87.1643 18.088C87.1643 18.5573 87.1003 19.0053 86.9723 19.432C86.8443 19.8587 86.6736 20.232 86.4603 20.552C86.2469 20.872 85.9909 21.128 85.6923 21.32C85.4149 21.4907 85.1056 21.576 84.7643 21.576C84.1669 21.576 83.6976 21.4053 83.3563 21.064C83.0149 20.7227 82.7483 20.328 82.5563 19.88C82.3856 19.432 82.2683 18.984 82.2043 18.536C82.1616 18.0667 82.1403 17.7147 82.1403 17.48C82.1403 17.096 82.1936 16.6693 82.3003 16.2C82.4283 15.7093 82.5883 15.2613 82.7803 14.856C82.9936 14.4507 83.2283 14.1093 83.4843 13.832C83.7403 13.5547 84.0069 13.416 84.2843 13.416C84.3483 13.416 84.4443 13.4373 84.5723 13.48C84.7216 13.5227 84.8709 13.5867 85.0203 13.672C85.1696 13.7573 85.2976 13.864 85.4043 13.992C85.5323 14.12 85.6176 14.2693 85.6603 14.44C85.8949 14.4613 86.1296 14.5467 86.3643 14.696C86.5989 14.8453 86.7269 14.9627 86.7483 15.048C86.9189 15.6027 87.0256 16.1573 87.0683 16.712C87.1323 17.2667 87.1643 17.7253 87.1643 18.088ZM85.7243 17.512C85.7243 17.192 85.6923 16.8613 85.6283 16.52C85.5643 16.1573 85.4363 15.7947 85.2443 15.432C85.2016 15.4533 85.1483 15.464 85.0843 15.464C84.9989 15.464 84.9243 15.4533 84.8602 15.432C84.8176 15.4107 84.7749 15.4 84.7323 15.4C84.4763 15.4 84.2736 15.4747 84.1243 15.624C83.9749 15.752 83.8576 15.9333 83.7723 16.168C83.7083 16.3813 83.6656 16.616 83.6443 16.872C83.6229 17.128 83.6123 17.3733 83.6123 17.608C83.6123 17.8427 83.6229 18.1093 83.6443 18.408C83.6656 18.6853 83.7083 18.952 83.7723 19.208C83.8576 19.464 83.9643 19.688 84.0923 19.88C84.2203 20.0507 84.3909 20.136 84.6043 20.136C84.8176 20.136 84.9989 20.0293 85.1483 19.816C85.2976 19.5813 85.4149 19.3147 85.5003 19.016C85.5856 18.7173 85.6389 18.4293 85.6603 18.152C85.7029 17.8533 85.7243 17.64 85.7243 17.512ZM104.613 21.992C104.613 22.1627 104.56 22.312 104.453 22.44C104.346 22.568 104.218 22.6747 104.069 22.76C103.92 22.824 103.76 22.8773 103.589 22.92C103.44 22.9627 103.312 22.984 103.205 22.984C102.757 22.984 102.373 22.7493 102.053 22.28C101.733 21.7893 101.466 21.256 101.253 20.68C101.04 20.0827 100.88 19.528 100.773 19.016C100.688 18.504 100.645 18.2267 100.645 18.184C100.517 18.4187 100.378 18.8133 100.229 19.368C100.101 19.9227 99.941 20.488 99.749 21.064C99.557 21.6187 99.3117 22.12 99.013 22.568C98.7357 22.9947 98.373 23.208 97.925 23.208C97.7117 23.208 97.509 23.08 97.317 22.824C97.125 22.568 96.9437 22.2373 96.773 21.832C96.6023 21.4267 96.4317 20.968 96.261 20.456C96.1117 19.944 95.9517 19.4427 95.781 18.952C95.6317 18.4613 95.4823 18.0027 95.333 17.576C95.1837 17.128 95.0343 16.776 94.885 16.52C94.757 16.84 94.6397 17.2773 94.533 17.832C94.4477 18.3867 94.373 18.9733 94.309 19.592C94.245 20.1893 94.1917 20.7867 94.149 21.384C94.1063 21.9813 94.085 22.504 94.085 22.952C94.085 23.2507 93.9997 23.464 93.829 23.592C93.6797 23.72 93.5197 23.784 93.349 23.784C93.1143 23.784 92.8797 23.6347 92.645 23.336C92.4103 23.016 92.1757 22.6107 91.941 22.12C91.7063 21.6293 91.4823 21.0747 91.269 20.456C91.077 19.8373 90.8957 19.2187 90.725 18.6C90.5757 17.9813 90.4583 17.3947 90.373 16.84C90.2877 16.264 90.245 15.784 90.245 15.4C90.245 15.1227 90.2557 14.8667 90.277 14.632C90.2983 14.44 90.309 14.2587 90.309 14.088C90.3303 13.9173 90.341 13.8213 90.341 13.8C90.341 13.736 90.3197 13.6933 90.277 13.672C90.2557 13.6507 90.245 13.5973 90.245 13.512C90.245 13.448 90.3197 13.352 90.469 13.224C90.6397 13.0747 90.8103 13 90.981 13C91.2797 13 91.4717 13.064 91.557 13.192C91.6637 13.32 91.717 13.4693 91.717 13.64C91.717 13.704 91.7063 13.8 91.685 13.928C91.685 14.056 91.685 14.344 91.685 14.792C91.685 15.0907 91.7383 15.5387 91.845 16.136C91.9517 16.7333 92.0797 17.3413 92.229 17.96C92.3783 18.5787 92.5277 19.1547 92.677 19.688C92.8477 20.2 92.9863 20.52 93.093 20.648C93.1357 20.5627 93.157 20.4667 93.157 20.36C93.1783 20.232 93.1997 20.136 93.221 20.072L93.573 17.448C93.6583 16.7867 93.829 16.0933 94.085 15.368C94.3623 14.6213 94.6503 14.0453 94.949 13.64C95.0557 13.4693 95.173 13.384 95.301 13.384C95.429 13.384 95.5463 13.48 95.653 13.672C96.0157 14.2693 96.2823 14.8667 96.453 15.464C96.645 16.04 96.805 16.616 96.933 17.192C97.0823 17.7467 97.2423 18.312 97.413 18.888C97.605 19.4427 97.893 20.008 98.277 20.584C98.4477 20.3067 98.661 19.8587 98.917 19.24C99.173 18.6 99.429 17.96 99.685 17.32C99.9623 16.68 100.218 16.1253 100.453 15.656C100.688 15.1653 100.869 14.92 100.997 14.92C101.061 14.92 101.168 14.9307 101.317 14.952C101.466 14.9733 101.573 14.984 101.637 14.984C101.829 14.984 101.989 15.208 102.117 15.656C102.245 16.0827 102.352 16.5947 102.437 17.192C102.544 17.768 102.64 18.3547 102.725 18.952C102.832 19.528 102.949 19.9653 103.077 20.264C103.162 20.4773 103.29 20.68 103.461 20.872C103.632 21.064 103.802 21.2453 103.973 21.416C104.186 21.608 104.4 21.8 104.613 21.992ZM135.764 21.416C135.764 22.1413 135.562 22.76 135.156 23.272C134.772 23.784 134.1 24.04 133.14 24.04C132.479 24.04 131.807 23.9227 131.124 23.688C130.463 23.4533 129.812 23.144 129.172 22.76C128.532 22.376 127.914 21.928 127.316 21.416C126.74 20.904 126.218 20.3707 125.748 19.816C125.706 20.008 125.642 20.2853 125.556 20.648C125.471 21.0107 125.364 21.3733 125.236 21.736C125.108 22.0987 124.959 22.4187 124.788 22.696C124.639 22.952 124.479 23.08 124.308 23.08C124.031 23.08 123.722 22.9413 123.38 22.664C123.06 22.3867 122.73 22.024 122.388 21.576C122.068 21.1067 121.748 20.5733 121.428 19.976C121.13 19.3787 120.863 18.76 120.628 18.12C120.01 16.3493 119.615 14.9627 119.444 13.96C119.274 12.936 119.188 12.3813 119.188 12.296C119.188 12.168 119.21 12.0507 119.252 11.944C119.295 11.8373 119.391 11.784 119.54 11.784C119.775 11.784 119.946 11.8587 120.052 12.008C120.18 12.136 120.266 12.3067 120.308 12.52C120.415 12.968 120.554 13.4907 120.724 14.088C120.916 14.664 121.119 15.2613 121.332 15.88C121.567 16.4987 121.802 17.1067 122.036 17.704C122.292 18.28 122.538 18.8027 122.772 19.272C123.007 19.7413 123.231 20.1253 123.444 20.424C123.658 20.7013 123.839 20.84 123.988 20.84C124.138 20.84 124.244 20.7227 124.308 20.488C124.394 20.232 124.458 19.944 124.5 19.624C124.543 19.304 124.564 18.9947 124.564 18.696C124.586 18.3973 124.596 18.1947 124.596 18.088C124.49 17.896 124.404 17.672 124.34 17.416C124.298 17.16 124.276 16.9467 124.276 16.776C124.276 16.4987 124.34 16.264 124.468 16.072C124.618 15.88 124.756 15.784 124.884 15.784C124.97 15.784 125.023 15.7947 125.044 15.816C125.087 15.8373 125.14 15.8587 125.204 15.88C125.268 15.88 125.322 15.88 125.364 15.88C125.407 15.8587 125.46 15.848 125.524 15.848C125.567 15.848 125.61 15.8693 125.652 15.912C125.716 15.9333 125.78 16.0187 125.844 16.168C126.122 16.8933 126.516 17.64 127.028 18.408C127.54 19.176 128.116 19.8693 128.756 20.488C129.396 21.1067 130.09 21.6187 130.836 22.024C131.583 22.4293 132.34 22.632 133.108 22.632C133.386 22.632 133.642 22.5467 133.876 22.376C134.111 22.184 134.228 21.9387 134.228 21.64C134.228 20.744 134.132 19.8267 133.94 18.888C133.77 17.9493 133.524 16.9893 133.204 16.008C132.906 15.0267 132.554 14.0347 132.148 13.032C131.743 12.008 131.327 10.9627 130.9 9.896C130.538 9 130.186 8.296 129.844 7.784C129.524 7.25067 129.236 6.83467 128.98 6.536C128.746 6.216 128.554 5.96 128.404 5.768C128.255 5.55467 128.18 5.29867 128.18 5C128.18 4.63733 128.308 4.37067 128.564 4.2C128.842 4.02933 129.13 3.944 129.428 3.944C129.599 3.944 129.791 4.11467 130.004 4.456C130.218 4.776 130.442 5.20267 130.676 5.736C130.911 6.248 131.146 6.824 131.38 7.464C131.615 8.104 131.85 8.744 132.084 9.384C132.426 10.3227 132.81 11.336 133.236 12.424C133.663 13.4907 134.058 14.568 134.42 15.656C134.804 16.7227 135.124 17.7573 135.38 18.76C135.636 19.7627 135.764 20.648 135.764 21.416ZM153.511 18.344C153.511 18.728 153.33 19.208 152.967 19.784C152.626 20.3387 152.157 20.8827 151.559 21.416C150.962 21.9493 150.269 22.408 149.479 22.792C148.69 23.1547 147.869 23.336 147.015 23.336C146.631 23.336 146.226 23.272 145.799 23.144C145.373 23.016 144.957 22.8347 144.551 22.6C144.146 22.344 143.783 22.0453 143.463 21.704C143.143 21.3413 142.909 20.936 142.759 20.488C142.631 20.616 142.471 20.8293 142.279 21.128C142.109 21.4267 141.917 21.736 141.703 22.056C141.49 22.3547 141.255 22.6213 140.999 22.856C140.743 23.0693 140.477 23.176 140.199 23.176C139.922 23.176 139.687 23.0373 139.495 22.76C139.325 22.4613 139.186 22.1413 139.079 21.8C138.973 21.4373 138.898 21.096 138.855 20.776C138.813 20.456 138.791 20.2747 138.791 20.232C138.791 19.976 138.866 19.496 139.015 18.792C139.165 18.0667 139.389 17.32 139.687 16.552C139.986 15.784 140.359 15.1013 140.807 14.504C141.277 13.9067 141.821 13.608 142.439 13.608C142.674 13.608 142.823 13.7147 142.887 13.928C142.973 14.12 143.015 14.312 143.015 14.504V15.464C143.122 15.5493 143.229 15.6133 143.335 15.656C143.463 15.6773 143.57 15.72 143.655 15.784C143.762 15.8267 143.837 15.9013 143.879 16.008C143.943 16.1147 143.975 16.2853 143.975 16.52C143.975 16.6693 143.965 16.808 143.943 16.936C143.922 17.0427 143.911 17.1493 143.911 17.256C143.911 17.8107 143.954 18.3547 144.039 18.888C144.125 19.4213 144.295 19.9013 144.551 20.328C144.807 20.7333 145.159 21.0747 145.607 21.352C146.055 21.608 146.653 21.736 147.399 21.736C148.338 21.736 149.127 21.544 149.767 21.16C150.429 20.7547 150.973 20.3173 151.399 19.848C151.847 19.3573 152.199 18.92 152.455 18.536C152.711 18.1307 152.925 17.928 153.095 17.928C153.373 17.928 153.511 18.0667 153.511 18.344ZM142.279 16.936C142.279 16.8507 142.258 16.776 142.215 16.712C142.173 16.6267 142.151 16.552 142.151 16.488C142.151 16.4027 142.173 16.328 142.215 16.264C142.258 16.2 142.279 16.1147 142.279 16.008C142.279 15.944 142.258 15.9013 142.215 15.88C142.173 15.8373 142.151 15.7947 142.151 15.752C141.959 15.7947 141.757 15.976 141.543 16.296C141.351 16.616 141.159 16.9893 140.967 17.416C140.797 17.8427 140.658 18.28 140.551 18.728C140.445 19.1547 140.391 19.5067 140.391 19.784C140.391 19.9333 140.434 20.1787 140.519 20.52C140.605 20.8613 140.701 21.0853 140.807 21.192C141.17 20.4453 141.501 19.72 141.799 19.016C142.119 18.312 142.279 17.6187 142.279 16.936ZM160.113 13.736C160.113 13.8 160.06 14.0773 159.953 14.568C159.846 15.0587 159.74 15.6133 159.633 16.232C159.569 16.5947 159.462 17.1387 159.313 17.864C159.185 18.568 159.121 19.6453 159.121 21.096C159.121 21.1387 159.11 21.256 159.089 21.448C159.089 21.6187 159.057 21.8 158.993 21.992C158.95 22.184 158.876 22.3653 158.769 22.536C158.662 22.6853 158.502 22.76 158.289 22.76C158.097 22.76 157.884 22.6747 157.649 22.504C157.116 22.12 156.625 21.672 156.177 21.16C155.729 20.648 155.345 20.0933 155.025 19.496C154.705 18.8773 154.46 18.2373 154.289 17.576C154.118 16.9147 154.033 16.2427 154.033 15.56C154.033 15.4747 154.086 15.4 154.193 15.336C154.321 15.2507 154.417 15.208 154.481 15.208C154.801 15.208 155.046 15.3893 155.217 15.752C155.409 16.1147 155.59 16.552 155.761 17.064C155.953 17.576 156.166 18.12 156.401 18.696C156.657 19.2507 157.03 19.7307 157.521 20.136C157.585 20.0507 157.638 19.8907 157.681 19.656C157.724 19.4213 157.756 19.2187 157.777 19.048C157.798 18.8987 157.83 18.6107 157.873 18.184C157.916 17.736 157.958 17.2667 158.001 16.776C158.065 16.2853 158.108 15.816 158.129 15.368C158.172 14.92 158.193 14.6107 158.193 14.44C158.193 14.312 158.204 14.1627 158.225 13.992C158.246 13.8213 158.289 13.6613 158.353 13.512C158.438 13.3627 158.545 13.2347 158.673 13.128C158.801 13.0213 158.972 12.968 159.185 12.968C159.292 12.968 159.473 13.0427 159.729 13.192C159.985 13.32 160.113 13.5013 160.113 13.736ZM171.832 21.64C171.854 21.6827 171.864 21.7467 171.864 21.832C171.864 21.96 171.768 22.152 171.576 22.408C171.512 22.4933 171.374 22.632 171.16 22.824C170.947 23.016 170.659 23.208 170.296 23.4C169.934 23.592 169.486 23.7627 168.952 23.912C168.44 24.0613 167.832 24.136 167.128 24.136C166.638 24.136 166.158 24.0293 165.688 23.816C165.219 23.5813 164.803 23.2507 164.44 22.824C164.078 22.376 163.779 21.832 163.544 21.192C163.31 20.5307 163.192 19.7627 163.192 18.888C163.192 18.056 163.299 17.2773 163.512 16.552C163.726 15.8267 163.992 15.1867 164.312 14.632C164.654 14.0773 165.027 13.64 165.432 13.32C165.838 13 166.232 12.84 166.616 12.84C166.958 12.84 167.299 12.9147 167.64 13.064C168.003 13.192 168.323 13.3627 168.6 13.576C168.899 13.7893 169.134 14.0347 169.304 14.312C169.475 14.568 169.56 14.8347 169.56 15.112C169.56 15.432 169.411 15.7627 169.112 16.104C168.835 16.4453 168.494 16.7653 168.088 17.064C167.683 17.3413 167.278 17.576 166.872 17.768C166.467 17.9387 166.147 18.024 165.912 18.024C165.784 18.024 165.667 17.9707 165.56 17.864C165.475 17.736 165.432 17.5867 165.432 17.416C165.432 17.1173 165.56 16.8827 165.816 16.712C166.094 16.5413 166.392 16.392 166.712 16.264C167.032 16.1147 167.32 15.944 167.576 15.752C167.854 15.56 167.992 15.2933 167.992 14.952C167.992 14.9093 167.939 14.8027 167.832 14.632C167.726 14.4613 167.438 14.376 166.968 14.376C166.755 14.376 166.51 14.504 166.232 14.76C165.955 14.9947 165.688 15.3253 165.432 15.752C165.176 16.1573 164.963 16.648 164.792 17.224C164.622 17.7787 164.536 18.3867 164.536 19.048C164.536 19.6027 164.632 20.104 164.824 20.552C165.038 21 165.304 21.384 165.624 21.704C165.944 22.0027 166.318 22.2373 166.744 22.408C167.171 22.5787 167.608 22.664 168.056 22.664C168.376 22.664 168.718 22.6 169.08 22.472C169.464 22.3227 169.816 22.1733 170.136 22.024C170.478 21.8533 170.766 21.704 171 21.576C171.256 21.4267 171.416 21.352 171.48 21.352C171.544 21.352 171.608 21.384 171.672 21.448C171.758 21.512 171.811 21.576 171.832 21.64ZM181.293 20.776C181.293 21.1387 181.165 21.4587 180.909 21.736C180.674 21.992 180.365 22.216 179.981 22.408C179.618 22.5787 179.213 22.7173 178.765 22.824C178.317 22.9307 177.89 23.016 177.485 23.08C177.079 23.1227 176.717 23.1547 176.397 23.176C176.098 23.176 175.906 23.176 175.821 23.176C175.351 23.176 174.989 23.1013 174.733 22.952C174.477 22.8027 174.349 22.536 174.349 22.152C174.349 22.024 174.359 21.9173 174.381 21.832C174.402 21.7253 174.487 21.672 174.637 21.672C174.701 21.672 174.807 21.6933 174.957 21.736C175.106 21.7573 175.223 21.768 175.309 21.768C175.394 21.768 175.661 21.7573 176.109 21.736C176.578 21.6933 177.069 21.6293 177.581 21.544C178.114 21.4587 178.583 21.3413 178.989 21.192C179.415 21.0213 179.629 20.808 179.629 20.552C179.629 20.5093 179.405 20.3813 178.957 20.168C178.53 19.9333 177.879 19.5493 177.005 19.016C176.322 18.5893 175.842 18.1627 175.565 17.736C175.287 17.288 175.149 16.6907 175.149 15.944C175.149 15.4747 175.245 15.0907 175.437 14.792C175.65 14.4933 175.927 14.2587 176.269 14.088C176.631 13.9173 177.037 13.8 177.485 13.736C177.954 13.6507 178.445 13.608 178.957 13.608C178.999 13.608 179.127 13.6293 179.341 13.672C179.575 13.7147 179.821 13.7893 180.077 13.896C180.333 13.9813 180.557 14.0987 180.749 14.248C180.962 14.376 181.069 14.5253 181.069 14.696C181.069 14.7387 181.026 14.8027 180.941 14.888C180.877 14.9733 180.759 15.1333 180.589 15.368C180.525 15.3467 180.407 15.3147 180.237 15.272C180.087 15.2293 179.906 15.1867 179.693 15.144C179.501 15.08 179.298 15.0373 179.085 15.016C178.871 14.9733 178.701 14.952 178.573 14.952C178.018 14.952 177.57 15.0587 177.229 15.272C176.887 15.464 176.717 15.848 176.717 16.424C176.717 16.7013 176.823 16.9573 177.036 17.192C177.271 17.4267 177.559 17.6507 177.901 17.864C178.242 18.056 178.605 18.2587 178.989 18.472C179.394 18.664 179.767 18.8773 180.109 19.112C180.45 19.3467 180.727 19.6027 180.941 19.88C181.175 20.136 181.293 20.4347 181.293 20.776ZM193.086 19.848C193.086 19.9547 193.033 20.0613 192.926 20.168C192.841 20.2533 192.787 20.3493 192.766 20.456C192.766 20.6907 192.809 20.9147 192.894 21.128C193.001 21.3413 193.054 21.5973 193.054 21.896C193.054 22.1733 192.969 22.312 192.798 22.312C192.585 22.312 192.425 22.344 192.318 22.408C192.233 22.4507 192.073 22.4933 191.838 22.536C191.71 22.536 191.571 22.4187 191.422 22.184C191.337 22.0773 191.262 21.9493 191.198 21.8C191.198 21.7787 191.134 21.8213 191.006 21.928C190.899 22.0347 190.707 22.1627 190.43 22.312C190.174 22.44 189.811 22.568 189.342 22.696C188.894 22.8027 188.318 22.856 187.614 22.856C187.017 22.856 186.494 22.728 186.046 22.472C185.598 22.1947 185.225 21.8427 184.926 21.416C184.649 20.9893 184.435 20.5093 184.286 19.976C184.158 19.4213 184.094 18.8667 184.094 18.312C184.094 17.8 184.147 17.32 184.254 16.872C184.382 16.4027 184.553 15.9973 184.766 15.656C184.979 15.2933 185.246 15.0053 185.566 14.792C185.886 14.5787 186.259 14.472 186.686 14.472C187.091 14.472 187.497 14.6 187.902 14.856C188.307 15.112 188.67 15.3893 188.99 15.688C189.31 15.9867 189.566 16.264 189.758 16.52C189.971 16.7547 190.078 16.872 190.078 16.872C189.779 15.208 189.513 13.704 189.278 12.36C189.171 11.784 189.065 11.2187 188.958 10.664C188.873 10.088 188.787 9.576 188.702 9.128C188.617 8.68 188.542 8.30667 188.478 8.008C188.435 7.688 188.414 7.496 188.414 7.432C188.393 7.304 188.371 7.08 188.35 6.76C188.329 6.41867 188.307 6.06667 188.286 5.704C188.265 5.34133 188.243 5.01067 188.222 4.712C188.201 4.41333 188.179 4.22133 188.158 4.136C188.094 3.92267 188.009 3.656 187.902 3.336C187.817 3.016 187.774 2.83467 187.774 2.792C187.774 2.68533 187.827 2.55733 187.934 2.408C188.041 2.23733 188.179 2.152 188.35 2.152C188.478 2.152 188.595 2.16267 188.702 2.184C188.809 2.20533 188.905 2.26933 188.99 2.376C189.075 2.48267 189.15 2.65333 189.214 2.888C189.299 3.10133 189.374 3.41066 189.438 3.816C189.459 4.02933 189.523 4.43467 189.63 5.032C189.737 5.62933 189.843 6.28 189.95 6.984C190.057 7.688 190.163 8.36 190.27 9C190.377 9.64 190.451 10.1093 190.494 10.408C190.601 11.2187 190.739 12.104 190.91 13.064C191.102 14.0027 191.294 14.9093 191.486 15.784C191.678 16.6587 191.87 17.4373 192.062 18.12C192.254 18.7813 192.425 19.2293 192.574 19.464C192.617 19.5493 192.702 19.6133 192.83 19.656C192.958 19.6773 193.043 19.7413 193.086 19.848ZM190.718 20.488C190.697 20.424 190.558 20.1573 190.302 19.688C190.067 19.1973 189.758 18.6747 189.374 18.12C189.011 17.544 188.595 17.032 188.126 16.584C187.678 16.136 187.241 15.912 186.814 15.912C186.451 15.912 186.153 16.1893 185.918 16.744C185.705 17.2987 185.598 17.9387 185.598 18.664C185.598 19.4747 185.833 20.1253 186.302 20.616C186.793 21.1067 187.337 21.352 187.934 21.352C188.446 21.352 188.979 21.2667 189.534 21.096C190.089 20.9253 190.483 20.7227 190.718 20.488ZM204.457 21.64C204.479 21.6827 204.489 21.7467 204.489 21.832C204.489 21.96 204.393 22.152 204.201 22.408C204.137 22.4933 203.999 22.632 203.785 22.824C203.572 23.016 203.284 23.208 202.921 23.4C202.559 23.592 202.111 23.7627 201.577 23.912C201.065 24.0613 200.457 24.136 199.753 24.136C199.263 24.136 198.783 24.0293 198.313 23.816C197.844 23.5813 197.428 23.2507 197.065 22.824C196.703 22.376 196.404 21.832 196.169 21.192C195.935 20.5307 195.817 19.7627 195.817 18.888C195.817 18.056 195.924 17.2773 196.137 16.552C196.351 15.8267 196.617 15.1867 196.937 14.632C197.279 14.0773 197.652 13.64 198.057 13.32C198.463 13 198.857 12.84 199.241 12.84C199.583 12.84 199.924 12.9147 200.265 13.064C200.628 13.192 200.948 13.3627 201.225 13.576C201.524 13.7893 201.759 14.0347 201.929 14.312C202.1 14.568 202.185 14.8347 202.185 15.112C202.185 15.432 202.036 15.7627 201.737 16.104C201.46 16.4453 201.119 16.7653 200.713 17.064C200.308 17.3413 199.903 17.576 199.497 17.768C199.092 17.9387 198.772 18.024 198.537 18.024C198.409 18.024 198.292 17.9707 198.185 17.864C198.1 17.736 198.057 17.5867 198.057 17.416C198.057 17.1173 198.185 16.8827 198.441 16.712C198.719 16.5413 199.017 16.392 199.337 16.264C199.657 16.1147 199.945 15.944 200.201 15.752C200.479 15.56 200.617 15.2933 200.617 14.952C200.617 14.9093 200.564 14.8027 200.457 14.632C200.351 14.4613 200.063 14.376 199.593 14.376C199.38 14.376 199.135 14.504 198.857 14.76C198.58 14.9947 198.313 15.3253 198.057 15.752C197.801 16.1573 197.588 16.648 197.417 17.224C197.247 17.7787 197.161 18.3867 197.161 19.048C197.161 19.6027 197.257 20.104 197.449 20.552C197.663 21 197.929 21.384 198.249 21.704C198.569 22.0027 198.943 22.2373 199.369 22.408C199.796 22.5787 200.233 22.664 200.681 22.664C201.001 22.664 201.343 22.6 201.705 22.472C202.089 22.3227 202.441 22.1733 202.761 22.024C203.103 21.8533 203.391 21.704 203.625 21.576C203.881 21.4267 204.041 21.352 204.105 21.352C204.169 21.352 204.233 21.384 204.297 21.448C204.383 21.512 204.436 21.576 204.457 21.64ZM213.918 20.776C213.918 21.1387 213.79 21.4587 213.534 21.736C213.299 21.992 212.99 22.216 212.606 22.408C212.243 22.5787 211.838 22.7173 211.39 22.824C210.942 22.9307 210.515 23.016 210.11 23.08C209.704 23.1227 209.342 23.1547 209.022 23.176C208.723 23.176 208.531 23.176 208.446 23.176C207.976 23.176 207.614 23.1013 207.358 22.952C207.102 22.8027 206.974 22.536 206.974 22.152C206.974 22.024 206.984 21.9173 207.006 21.832C207.027 21.7253 207.112 21.672 207.262 21.672C207.326 21.672 207.432 21.6933 207.582 21.736C207.731 21.7573 207.848 21.768 207.934 21.768C208.019 21.768 208.286 21.7573 208.734 21.736C209.203 21.6933 209.694 21.6293 210.206 21.544C210.739 21.4587 211.208 21.3413 211.614 21.192C212.04 21.0213 212.254 20.808 212.254 20.552C212.254 20.5093 212.03 20.3813 211.582 20.168C211.155 19.9333 210.504 19.5493 209.63 19.016C208.947 18.5893 208.467 18.1627 208.19 17.736C207.912 17.288 207.774 16.6907 207.774 15.944C207.774 15.4747 207.87 15.0907 208.062 14.792C208.275 14.4933 208.552 14.2587 208.894 14.088C209.256 13.9173 209.662 13.8 210.11 13.736C210.579 13.6507 211.07 13.608 211.582 13.608C211.624 13.608 211.752 13.6293 211.966 13.672C212.2 13.7147 212.446 13.7893 212.702 13.896C212.958 13.9813 213.182 14.0987 213.374 14.248C213.587 14.376 213.694 14.5253 213.694 14.696C213.694 14.7387 213.651 14.8027 213.566 14.888C213.502 14.9733 213.384 15.1333 213.214 15.368C213.15 15.3467 213.032 15.3147 212.862 15.272C212.712 15.2293 212.531 15.1867 212.318 15.144C212.126 15.08 211.923 15.0373 211.71 15.016C211.496 14.9733 211.326 14.952 211.198 14.952C210.643 14.952 210.195 15.0587 209.854 15.272C209.512 15.464 209.342 15.848 209.342 16.424C209.342 16.7013 209.448 16.9573 209.661 17.192C209.896 17.4267 210.184 17.6507 210.526 17.864C210.867 18.056 211.23 18.2587 211.614 18.472C212.019 18.664 212.392 18.8773 212.734 19.112C213.075 19.3467 213.352 19.6027 213.566 19.88C213.8 20.136 213.918 20.4347 213.918 20.776ZM218.543 10.28C218.543 10.3227 218.468 10.408 218.319 10.536C218.17 10.664 217.988 10.8027 217.775 10.952C217.583 11.08 217.38 11.1973 217.167 11.304C216.954 11.4107 216.783 11.464 216.655 11.464C216.57 11.464 216.452 11.464 216.303 11.464C216.175 11.4427 216.036 11.4 215.887 11.336C215.759 11.272 215.642 11.1867 215.535 11.08C215.428 10.952 215.375 10.792 215.375 10.6C215.375 10.3013 215.482 10.024 215.695 9.768C215.908 9.49067 216.186 9.352 216.527 9.352C216.591 9.352 216.73 9.384 216.943 9.448C217.178 9.49067 217.412 9.55467 217.647 9.64C217.882 9.72533 218.084 9.82133 218.255 9.928C218.447 10.0347 218.543 10.152 218.543 10.28ZM219.599 22.248C219.599 22.3973 219.482 22.5253 219.247 22.632C219.034 22.7387 218.874 22.792 218.767 22.792C218.554 22.792 218.362 22.6533 218.191 22.376C218.02 22.0987 217.871 21.7787 217.743 21.416C217.615 21.0533 217.508 20.712 217.423 20.392C217.338 20.0507 217.274 19.816 217.231 19.688C217.167 19.4747 217.082 19.2187 216.975 18.92C216.868 18.6213 216.762 18.3333 216.655 18.056C216.57 17.7787 216.495 17.5333 216.431 17.32C216.367 17.1067 216.335 16.9893 216.335 16.968C216.335 16.6693 216.388 16.392 216.495 16.136C216.623 15.88 216.772 15.752 216.943 15.752C217.135 15.752 217.338 15.9013 217.551 16.2C217.764 16.4987 217.967 16.8827 218.159 17.352C218.372 17.8 218.564 18.3013 218.735 18.856C218.906 19.3893 219.055 19.9013 219.183 20.392C219.311 20.8613 219.407 21.2773 219.471 21.64C219.556 21.9813 219.599 22.184 219.599 22.248ZM229.56 22.184C229.56 22.4187 229.474 22.5787 229.304 22.664C229.133 22.7493 229.048 22.8667 229.048 23.016C229.026 22.9947 229.069 23.112 229.176 23.368C229.282 23.624 229.378 23.8907 229.464 24.168C229.613 24.744 229.741 25.2453 229.848 25.672C229.976 26.0987 230.072 26.4933 230.136 26.856C230.221 27.2187 230.285 27.5813 230.328 27.944C230.37 28.3067 230.392 28.712 230.392 29.16C230.392 29.608 230.317 30.0667 230.168 30.536C230.018 31.0053 229.805 31.4213 229.528 31.784C229.25 32.1467 228.909 32.4453 228.504 32.68C228.098 32.9147 227.64 33.032 227.128 33.032C226.338 33.032 225.709 32.872 225.24 32.552C224.792 32.232 224.45 31.8693 224.216 31.464C223.981 31.0587 223.832 30.6533 223.768 30.248C223.704 29.864 223.672 29.608 223.672 29.48C223.672 28.6907 223.874 27.9013 224.28 27.112C224.685 26.3227 225.133 25.608 225.624 24.968C226.114 24.328 226.562 23.7947 226.968 23.368C227.373 22.9413 227.576 22.696 227.576 22.632L227.224 21.576C227.01 21.832 226.818 22.12 226.648 22.44C226.498 22.7387 226.328 23.0267 226.136 23.304C225.965 23.56 225.752 23.784 225.496 23.976C225.261 24.1467 224.962 24.232 224.6 24.232C224.216 24.232 223.832 24.1147 223.448 23.88C223.064 23.6453 222.722 23.2933 222.424 22.824C222.125 22.3547 221.88 21.7893 221.688 21.128C221.517 20.4667 221.432 19.6987 221.432 18.824C221.432 18.3333 221.506 17.7253 221.656 17C221.805 16.2533 222.04 15.5387 222.36 14.856C222.68 14.1733 223.074 13.5973 223.544 13.128C224.034 12.6373 224.6 12.392 225.24 12.392C225.602 12.392 225.933 12.456 226.232 12.584C226.552 12.712 226.712 12.872 226.712 13.064C226.712 13.2347 226.68 13.3733 226.616 13.48C226.552 13.5867 226.466 13.6933 226.36 13.8C226.296 13.7573 226.221 13.7147 226.136 13.672C226.072 13.6293 225.976 13.608 225.848 13.608C225.378 13.608 224.952 13.8213 224.568 14.248C224.205 14.6533 223.896 15.1653 223.64 15.784C223.384 16.3813 223.181 17.0107 223.032 17.672C222.904 18.3333 222.84 18.9093 222.84 19.4C222.84 20.488 223.021 21.32 223.384 21.896C223.746 22.4507 224.13 22.728 224.536 22.728C224.728 22.728 224.93 22.5893 225.144 22.312C225.378 22.0133 225.592 21.6933 225.784 21.352C225.997 20.9893 226.178 20.648 226.328 20.328C226.477 20.008 226.562 19.816 226.584 19.752C226.626 19.5387 226.648 19.2933 226.648 19.016C226.648 18.7813 226.637 18.5253 226.616 18.248C226.616 17.9493 226.616 17.6507 226.616 17.352C226.616 16.7973 226.658 16.3387 226.744 15.976C226.829 15.592 227.042 15.4 227.384 15.4C227.725 15.4 227.97 15.5067 228.12 15.72C228.269 15.912 228.344 16.1467 228.344 16.424C228.344 16.616 228.333 16.8507 228.312 17.128C228.312 17.384 228.312 17.64 228.312 17.896C228.312 18.1307 228.301 18.344 228.28 18.536C228.28 18.7067 228.28 18.8133 228.28 18.856C228.28 18.984 228.29 19.176 228.312 19.432C228.354 19.6667 228.386 19.912 228.408 20.168C228.45 20.4027 228.482 20.6267 228.504 20.84C228.546 21.032 228.578 21.16 228.6 21.224C228.621 21.288 228.653 21.384 228.696 21.512C228.738 21.64 228.781 21.736 228.824 21.8C228.845 21.7573 228.888 21.7147 228.952 21.672C229.016 21.608 229.069 21.5547 229.112 21.512C229.218 21.576 229.314 21.704 229.4 21.896C229.506 22.0667 229.56 22.1627 229.56 22.184ZM228.472 26.248C228.386 25.9067 228.29 25.5653 228.184 25.224C228.077 24.8827 227.97 24.5307 227.864 24.168C227.501 24.616 227.149 25.0427 226.808 25.448C226.488 25.8747 226.189 26.2907 225.912 26.696C225.656 27.1013 225.442 27.5173 225.272 27.944C225.122 28.392 225.048 28.8613 225.048 29.352C225.048 30.0133 225.229 30.5573 225.592 30.984C225.976 31.4107 226.392 31.624 226.84 31.624C227.33 31.624 227.789 31.4427 228.216 31.08C228.664 30.7173 228.888 30.1947 228.888 29.512C228.888 29.064 228.877 28.6907 228.856 28.392C228.834 28.0933 228.802 27.8267 228.76 27.592C228.738 27.3787 228.696 27.1653 228.632 26.952C228.589 26.76 228.536 26.5253 228.472 26.248ZM241.818 21.064C241.818 21.192 241.775 21.32 241.69 21.448C241.604 21.576 241.498 21.6933 241.37 21.8C241.263 21.9067 241.135 22.0027 240.986 22.088C240.858 22.152 240.74 22.184 240.634 22.184C240.271 22.184 239.802 22.1093 239.226 21.96C238.671 21.7893 238.223 21.5333 237.882 21.192C237.519 20.8293 237.199 20.4027 236.922 19.912C236.644 19.4 236.335 18.6533 235.994 17.672C235.759 18.6107 235.481 19.5387 235.161 20.456C234.863 21.3733 234.372 22.216 233.69 22.984C233.647 23.0267 233.583 23.048 233.498 23.048C233.348 23.048 233.188 22.9733 233.018 22.824C232.847 22.6747 232.762 22.5253 232.762 22.376C232.762 22.2267 232.74 21.8853 232.698 21.352C232.676 20.7973 232.644 20.1893 232.602 19.528C232.559 18.8453 232.516 18.1627 232.474 17.48C232.452 16.776 232.442 16.2 232.442 15.752C232.442 15.5387 232.452 15.2613 232.474 14.92C232.495 14.5573 232.559 14.248 232.666 13.992C232.687 13.9493 232.762 13.864 232.89 13.736C233.039 13.608 233.199 13.544 233.37 13.544C233.519 13.544 233.604 13.64 233.626 13.832C233.647 14.024 233.658 14.2373 233.658 14.472V19.528C233.658 19.6347 233.668 19.784 233.69 19.976C233.732 20.168 233.786 20.3067 233.85 20.392C234.084 19.88 234.298 19.2827 234.49 18.6C234.703 17.896 234.906 17.2347 235.098 16.616C235.29 15.976 235.482 15.4427 235.674 15.016C235.866 14.568 236.058 14.344 236.25 14.344C236.463 14.344 236.634 14.3867 236.762 14.472C236.89 14.5573 236.996 14.728 237.082 14.984C237.188 15.6027 237.274 16.1573 237.338 16.648C237.402 17.1173 237.476 17.544 237.562 17.928C237.668 18.312 237.807 18.6747 237.978 19.016C238.17 19.336 238.426 19.6347 238.746 19.912C239.044 20.1893 239.375 20.392 239.738 20.52C240.122 20.648 240.452 20.712 240.73 20.712C240.858 20.712 240.996 20.6907 241.146 20.648C241.295 20.584 241.402 20.552 241.466 20.552C241.551 20.552 241.626 20.6267 241.69 20.776C241.775 20.9253 241.818 21.0213 241.818 21.064Z" fill="#EFEEE8"/>
</svg>
